<?xml version="1.0" standalone="no"?>
<!DOCTYPE svg PUBLIC "-//W3C//DTD SVG 20010904//EN"
 "http://www.w3.org/TR/2001/REC-SVG-20010904/DTD/svg10.dtd">
<svg version="1.0" xmlns="http://www.w3.org/2000/svg"
 width="700.000000pt" height="700.000000pt" viewBox="0 0 700.000000 700.000000"
 preserveAspectRatio="xMidYMid meet">
<metadata>
Created by potrace 1.11, written by Peter Selinger 2001-2013
</metadata>
<g transform="translate(0.000000,700.000000) scale(0.100000,-0.100000)"
fill="#000000" stroke="none">
<path d="M1775 5464 c-935 -569 -1710 -1045 -1722 -1056 -28 -26 -37 -66 -23
-102 12 -31 71 -60 103 -50 11 3 151 86 311 184 l291 177 3 -1969 2 -1969
1255 7 1255 7 0 -91 0 -92 65 0 65 0 0 -200 0 -200 695 0 695 0 0 200 0 200
45 0 c38 0 45 3 45 20 0 13 7 20 20 20 18 0 20 7 20 72 l0 71 685 -7 685 -7 2
1966 3 1965 290 -176 c242 -148 296 -177 328 -177 52 0 82 30 82 83 0 29 -7
46 -25 64 -14 14 -302 193 -640 399 l-615 375 -3 641 -2 641 -310 0 -310 0 -2
-449 -3 -449 -770 469 c-481 293 -779 469 -795 469 -16 0 -648 -380 -1725
-1036z m2456 393 c393 -239 785 -478 872 -531 86 -53 159 -96 162 -96 3 0 5
232 5 515 l0 515 105 0 105 0 0 -580 0 -579 23 -17 c12 -9 146 -91 297 -182
l275 -167 3 -1939 2 -1939 -46 7 c-26 3 -291 6 -590 6 l-544 0 0 40 0 41 -62
-3 -63 -3 -3 -217 -2 -217 -63 -3 -62 -3 -3 -132 -3 -133 -564 0 -565 0 0 135
0 135 -65 0 -65 0 0 155 0 155 -65 0 -65 0 0 130 0 130 -85 0 -85 0 0 -105 0
-105 -962 0 c-530 0 -1014 -3 -1076 -7 l-112 -6 2 1942 3 1942 645 393 c1618
986 1916 1165 1926 1162 5 -2 332 -199 725 -439z"/>
<path d="M3380 3135 c0 -63 -1 -65 -25 -65 -18 0 -25 5 -25 20 0 17 -7 20 -40
20 l-40 0 0 -665 0 -665 -90 0 -91 0 3 -62 3 -63 88 -3 87 -3 0 -64 0 -65 65
0 65 0 0 775 0 775 130 0 130 0 0 -640 0 -640 65 0 65 0 0 285 0 285 150 0
150 0 0 65 0 65 -150 0 -150 0 0 310 0 310 -40 0 c-33 0 -40 -3 -40 -20 0 -15
-7 -20 -25 -20 -24 0 -25 2 -25 65 l0 65 -130 0 -130 0 0 -65z"/>
<path d="M4080 2075 l0 -285 65 0 65 0 0 220 0 220 130 0 130 0 0 -310 0 -310
65 0 c63 0 65 1 65 25 0 18 5 25 20 25 19 0 20 8 22 218 l3 217 63 3 62 3 0
64 0 65 -149 0 -150 0 -3 43 c-3 42 -3 42 -45 45 -35 3 -43 7 -43 23 0 18 -8
19 -150 19 l-150 0 0 -285z"/>
<path d="M4780 2005 l0 -85 60 0 60 0 0 85 0 85 -60 0 -60 0 0 -85z"/>
<path d="M2690 1725 l0 -195 65 0 65 0 0 130 0 130 125 0 125 0 0 65 0 65
-190 0 -190 0 0 -195z"/>
<path d="M4907 1823 c-4 -54 -7 -272 -7 -485 l0 -388 65 0 65 0 0 485 0 485
-58 0 -59 0 -6 -97z"/>
<path d="M2820 1455 l0 -65 65 0 65 0 0 -155 0 -155 65 0 65 0 0 155 0 155
-65 0 -65 0 0 65 0 65 -65 0 -65 0 0 -65z"/>
</g>
</svg>
